<?xml version="1.0" encoding="UTF-8"?><svg id="uuid-31d57bba-8243-4d41-91d2-f1a6bd5ad5ac" xmlns="http://www.w3.org/2000/svg" viewBox="0 0 1189.4 1188.68"><defs><style>.uuid-85412073-84ad-4a7b-99b2-cffdec101c3f{stroke-width:0px;}</style></defs><g id="uuid-92c77f20-111a-4a61-a59d-72fccc7d34a4"><path class="uuid-85412073-84ad-4a7b-99b2-cffdec101c3f" d="M0,397.47c.17-.18.44-.33.49-.54,3.26-12.03,10.31-17.44,22.95-17.45,31.74-.03,63.48,0,95.22,0,23.24,0,46.48,0,69.73,0,1.34,0,2.68,0,4.97,0-4.57-5.57-8.61-10.53-12.68-15.47-18.35-22.25-36.73-44.47-54.99-66.79-1.74-2.12-2.53-2.37-4.12,0-11.22,16.76-19.23,34.88-23.27,54.67-.6,2.93-1.65,3.8-4.59,3.77-13.12-.16-26.24-.07-39.36-.07-4.69,0-4.66-.01-3.9-4.5,4.23-24.76,13.07-47.75,26.45-69.01,4.52-7.19,9.4-14.12,14.83-20.64,1.6-1.92,1.66-3.03.06-4.97-19.95-24.16-39.82-48.39-59.7-72.61-3.09-3.76-6.27-7.44-7.64-12.29-2.61-9.28-.49-17.47,6.4-23.98,6.92-6.53,15.28-8.94,24.5-5.39,4.64,1.79,8.38,5,11.62,8.95,28.03,34.17,56.17,68.25,84.28,102.35,15.63,18.97,31.29,37.92,46.9,56.9,15.79,19.21,31.5,38.48,47.31,57.66,12.34,14.97,24.81,29.83,37.16,44.8,12.34,14.96,24.58,30.01,36.91,44.98,13.28,16.12,26.62,32.21,39.94,48.3,3.89,4.7,8.06,9.18,11.58,14.14,1.74,2.45,3.63,2.63,6.01,2.36,24.13-2.69,46.23,15.59,50.39,37.99,5.41,29.17-15.5,53.8-41.96,56.59-13.63,1.44-25.18-2.85-35.56-11.26-10.24-8.3-15.2-19.51-16.86-32.16-.8-6.09.21-12.38,2.32-18.26.62-1.72.34-2.66-.73-3.95-9.07-10.94-18.03-21.97-27.09-32.91-7.67-9.26-15.48-18.4-23.14-27.66-6.16-7.45-12.15-15.05-18.3-22.52-5.54-6.73-11.23-13.33-16.76-20.06-4.97-6.04-9.89-12.14-14.71-18.31-1.63-2.09-3.26-3.26-6.17-3.25-57.48.1-114.96.12-172.44-.02-3.77,0-3.93,1.23-3.44,4.26,3.29,20.68,6.39,41.39,9.67,62.07,2.85,17.97,5.9,35.9,8.75,53.87,2.4,15.16,4.6,30.35,6.98,45.51,2.36,15.04,4.9,30.05,7.26,45.1,2.38,15.17,4.61,30.36,6.98,45.53,1.84,11.73,3.86,23.44,5.7,35.17,2.15,13.71,4.16,27.43,6.29,41.14,2.04,13.09,4.17,26.16,6.22,39.24,2.19,13.94,4.32,27.9,6.52,41.84,2.06,13.09,4.21,26.16,6.26,39.24,2.19,13.94,4.29,27.9,6.49,41.84,1.83,11.62,3.78,23.22,5.61,34.84,2.41,15.29,4.74,30.59,7.13,45.88,1.82,11.62,3.67,23.24,5.51,34.85,2.15,13.57,4.31,27.15,6.47,40.72,2.18,13.69,4.36,27.38,6.54,41.07,1.05,6.6,2.19,13.19,3.05,19.82.27,2.08,1.23,2.43,2.95,2.31.99-.07,2-.01,3-.01,120.46,0,240.92,0,361.38-.05,2.83,0,4.69.61,6.55,3,14.54,18.76,32.81,32.93,54.14,43.22.42.2.81.49,1.84,1.13-1.62.1-2.63.23-3.65.23-148.45,0-296.9.01-445.35,0-14.39,0-24.32-8.97-26.51-23.24-4.79-31.16-9.82-62.29-14.68-93.44-4.63-29.68-9.13-59.37-13.76-89.05-4.62-29.55-9.37-59.08-13.99-88.63-4.87-31.15-9.63-62.32-14.5-93.48-4.62-29.55-9.35-59.08-13.97-88.63-4.14-26.47-8.14-52.97-12.28-79.44-4.62-29.55-9.37-59.08-13.98-88.63-4.63-29.68-9.16-59.37-13.75-89.05-2.25-14.53-4.55-29.06-6.85-43.58-.07-.45-.41-.85-.63-1.27,0-4.25,0-8.5,0-12.75Z"/><path class="uuid-85412073-84ad-4a7b-99b2-cffdec101c3f" d="M930.25,1188.63c-73.47,0-146.95.03-220.42-.01-31.03-.02-61.4-4.17-90.61-15.16-22.77-8.57-43-21.26-59.42-39.21-19.78-21.61-30.98-47.41-34.95-76.45-1.25-9.13-1.8-18.33-1.31-27.42,1.01-18.67,4.19-37.03,10.03-54.9,4.32-13.21,9.65-25.97,16.16-38.21,7.23-13.6,15.71-26.42,24.96-38.76,7.24-9.65,15.01-18.89,23.25-27.62,7.75-8.21,15.78-16.22,24.19-23.82,11.04-9.98,22.43-19.51,34.17-28.63,17.85-13.86,36.47-26.57,55.73-38.41,11.97-7.36,24.08-14.45,36.44-21.07,12.18-6.52,24.32-13.12,37-18.72,8.19-3.61,16.22-7.58,24.52-10.94,2.69-1.09,3.28-3.66,4.15-5.9,11.79-30.42,23.5-60.87,35.22-91.31,13-33.77,26.01-67.55,39-101.32,12.47-32.41,24.94-64.82,37.4-97.23,10.85-28.25,21.66-56.52,32.53-84.76,9.63-25.02,19.35-50,28.99-75.01,8.35-21.68,16.61-43.39,24.96-65.07,10.92-28.36,21.9-56.7,32.83-85.06,10-25.93,20.02-51.85,29.91-77.82,2.93-7.71,5.09-15.74,9.85-22.64,13.05-18.9,37.1-27.36,59.31-21.17,1.82.51,3.81-.1,5.33.62,16.27,7.75,30.74,17.39,36.93,35.66,3.72,11,3.99,21.99.63,33.08-11.19,36.94-23.85,73.4-35.93,110.06-34.65,105.22-69.4,210.41-104.1,315.62-23.66,71.77-47.29,143.55-70.94,215.32-8.07,24.47-16.37,48.87-24.23,73.41-6.3,19.64-13.67,38.94-17.96,59.22-9.39,44.38-8.46,87.93,9.28,130.33,10.24,24.48,25.1,45.9,43.43,64.94,32.8,34.07,72.27,58.23,115.22,77.18,22.72,10.03,46.09,18.15,70.07,24.59,12.07,3.24,18.85,13.89,17.32,26.59-1.3,10.79-10.87,19.35-22.4,20-1.37.08-2.75.06-4.12.06-77.47,0-154.95,0-232.42,0v-.05ZM665.36,1137.16c-2.15-3.18-3.88-5.6-5.47-8.1-18.87-29.79-21.8-62.29-16.23-96.19,3.6-21.9,10.58-42.75,20.05-62.77,13.34-28.19,30.7-53.65,52.18-76.29,5.21-5.49,11.64-8.32,19.08-7.9,10.11.56,17.47,5.73,21.24,15.19,3.67,9.22,1.63,17.63-4.85,25.02-2.14,2.44-4.48,4.71-6.6,7.17-16.97,19.74-30.21,41.82-40.45,65.66-9.66,22.5-16.75,45.69-15.22,70.62.92,14.94,5.39,28.55,15.59,39.95,11.31,12.65,25.82,19.68,41.74,24.37,17.13,5.05,34.74,6.66,52.48,7.17,6.65.19,13.31.03,20.62.03-1.18-1.28-1.81-2.02-2.5-2.7-9.68-9.36-17.8-19.9-23.75-32.01-16.94-34.53-18.62-70.38-9.02-107.14,3.44-13.19,16.14-20.69,29.11-17.33,12.5,3.25,20.15,16,17,28.77-3.94,15.93-5.34,31.95-2.61,48.22,3.13,18.63,10.95,34.97,24.69,47.99,24.45,23.16,55.1,32.28,87.45,33.87,35.78,1.75,71.7.4,107.57.4,1.2,0,2.39,0,3.93,0-.48-.57-.65-.93-.93-1.07-1.88-.96-3.75-1.94-5.67-2.79-27.62-12.26-53.7-26.81-75.98-47.71-20.98-19.68-39.84-40.96-54.56-65.76-18.28-30.78-29.18-63.97-32.66-99.63-2.09-21.49-1.47-42.88,1.35-64.25,2.74-20.81,7.56-41.14,14-61.1.76-2.35.3-3.18-1.93-3.99-15.8-5.73-31.55-11.6-47.32-17.41-5.37-1.97-10.84-5.56-16.13-5.34-5.45.22-10.8,4.07-16.11,6.54-54.08,25.14-105.06,55.26-150.52,94.17-23.44,20.06-44.62,42.22-61.68,68.06-20.38,30.87-32.9,64.28-31.84,101.83.48,17,4.95,32.95,14.21,47.39,12.21,19.05,29.83,31.14,50.57,39.15,9.19,3.55,18.64,6.18,29.17,7.92ZM1142.03,56.67c.03-5.19-2.56-8.4-6.84-9.29-8.19-1.7-10.76-.24-13.72,7.81-.3.82-.66,1.62-.97,2.43-26.35,68.57-52.71,137.14-79.05,205.71-27.05,70.45-54.07,140.91-81.13,211.35-32.55,84.74-65.12,169.47-97.79,254.16-1.09,2.82-.36,3.56,2.08,4.45,15.1,5.49,30.19,11.01,45.19,16.75,2.93,1.12,3.94.72,4.92-2.27,26.23-79.96,52.54-159.9,78.86-239.83,28.08-85.26,56.18-170.51,84.28-255.76,20.31-61.61,40.66-123.2,60.91-184.82,1.24-3.76,2.88-7.44,3.26-10.68Z"/><path class="uuid-85412073-84ad-4a7b-99b2-cffdec101c3f" d="M652.31,790.97c1.7-10.6,3.37-20.81,4.96-31.03,2.21-14.17,4.31-28.35,6.53-42.51,1.78-11.34,3.71-22.65,5.48-33.99,2.22-14.16,4.3-28.35,6.51-42.51,1.96-12.55,4.06-25.08,6.03-37.63,2.27-14.53,4.42-29.08,6.7-43.61,1.72-10.97,3.6-21.92,5.32-32.89,2.27-14.53,4.38-29.09,6.68-43.61,2.02-12.79,4.22-25.56,6.31-38.34.86-5.24,1.61-10.5,2.45-15.75.24-1.53-.47-2.03-1.86-1.99-1.12.03-2.25,0-3.37,0-116.09,0-232.18-.03-348.27.13-4.6,0-7.62-1.34-10.3-4.81-10.7-13.85-21.42-27.69-32.65-41.12-.28-.34-.28-.92-.53-1.83h3.31c140.71,0,281.41,0,422.12,0,10.79,0,20.58,6.81,23.05,16.15,1.59,6.01,1.03,12.06.06,18.11-2.7,16.88-5.35,33.77-8.07,50.64-2.68,16.61-5.48,33.2-8.11,49.82-2.61,16.51-5.03,33.05-7.63,49.56-2.62,16.63-5.39,33.24-8.04,49.87-2.09,13.09-4.09,26.19-6.16,39.28-1.94,12.22-3.96,24.42-5.88,36.64-1.84,11.74-3.57,23.5-5.38,35.24-1.51,9.79-3.08,19.57-4.54,29.37-.23,1.53-1.3,2.11-2.33,2.64-17.83,9.02-33.81,20.83-49.74,32.74-.68.51-1.5.82-2.64,1.43Z"/><path class="uuid-85412073-84ad-4a7b-99b2-cffdec101c3f" d="M165.76,203.42c11.28-4.59,22.08-7.02,33.38-6.84,2.1.03,3.47-.63,4.56-2.27,7.73-11.72,16.63-22.46,26.36-32.59,14.32-14.91,30.38-27.57,48.24-37.87,23.98-13.83,49.79-22.52,77.24-26.07,16.98-2.2,33.98-2.15,51.07-.37,25.02,2.62,48.76,9.41,71.29,20.37,25.82,12.57,47.95,29.96,66.84,51.63,12.17,13.96,22.16,29.28,30.49,45.73,3.47,6.84,6.55,13.89,9.11,21.13.63,1.79,1.45,2.86,3.58,3.02,21.94,1.67,42.09,8.83,60.51,20.65,29.31,18.82,49.26,45.07,60.48,77.96,1.95,5.71,3.18,11.67,4.75,17.52.48,1.79-.16,2.44-2.04,2.43-15.12-.05-30.24-.09-45.36.04-2.33.02-2.65-1.41-3.09-2.9-3.72-12.75-10.24-24.04-18.75-34.05-8.79-10.34-19.13-18.9-31.56-24.73-10.82-5.07-21.98-8.33-34.04-9.18-9.35-.66-18.66-.26-27.99-.46-2.58-.06-3.62-.72-4.23-3.3-2.98-12.68-5.97-25.34-11.04-37.44-6.22-14.83-14.34-28.43-24.32-41.01-7.02-8.85-14.8-16.95-23.46-24.17-21.61-18.03-46.12-30.33-73.78-35.83-39.43-7.84-76.97-2.14-112.33,16.99-28.5,15.42-50.91,37.22-66.06,65.93-3.5,6.64-7.02,9.92-14.9,9.21-5.97-.54-11.96,1.95-17.87,3.38-2.22.54-3.44.07-4.82-1.5-8.87-10.17-17.78-20.31-26.75-30.39-1.53-1.72-3.42-3.13-5.52-5.03Z"/></g></svg>